#!OML:ASF F:\VICON\USERDATA\INSTALL\rory3\rory3.ASF
:FULLY-SPECIFIED
:DEGREES
66
root -0.7305255671569535 17.49601841468284 34.52793903368151 1.1259925345985895 4.738258186970764 -0.9384761192401259
lfemur -23.936550076374466 -4.711213867943202 -23.21293363293718
ltibia 41.18425350806934
lfoot -0.2104697725078708 -15.665203270523286
ltoes 2.140544937761481
rfemur -4.612417696626892 -5.010016052370044 26.143307067239828
rtibia 69.09850925896569
rfoot 16.38810404626151 -6.188179756965587
rtoes 14.43270437194206
lowerback 15.321457632630377 1.7517189154468586 1.0734719247285052
upperback -0.06666636102105006 2.6003846460005517 -0.15639090415765444
thorax -8.828145016152423 1.2496330604192913 -0.9069969281192748
lowerneck -19.240731533907713 -5.441388702969848 -1.9207435296993516
upperneck 14.67967492289717 -7.843979483163171 4.654100597424154
head 7.89090390726199 -3.3757336901004744 0.8902468515064768
lclavicle 1.1891262148249823e-16 1.673310052436853e-15
lhumerus -55.720029378489976 -7.2361418926248335 92.27152055361691
lradius 94.71921861785192
lwrist 33.89188248717709
lhand -28.213637027599788 9.155402495506424
lfingers 7.125019999999998
lthumb -1.4634257114693323 38.13692906958078
rclavicle 1.2381483565577137e-16 1.6776009686417662e-15
rhumerus -42.87282991793229 13.243163724505237 -96.49160324105047
rradius 122.22621263832369
rwrist -17.957556967694764
rhand -18.760307952085338 40.307506356957425
rfingers 7.125019999999998
rthumb 7.497611011842523 10.95733903409049
67
root -0.7118847858594284 17.336182495675597 35.370576527815786 1.1263302401175377 5.5511456035132865 2.4057931460017814
lfemur -21.82761093392216 -5.741607852362729 -26.592869925423372
ltibia 44.257396320543506
lfoot -3.0667800930038602 -12.379430447209844
ltoes 5.1798890859225715
rfemur -8.854213496634092 -7.346011918576148 21.214289597749357
rtibia 74.79090826650679
rfoot 14.810427627736573 -5.292010432013804
rtoes 14.447800622670986
lowerback 15.442157368423585 1.5605032064446778 -1.6130105013006268
upperback 0.2552337958178653 1.850632946928803 -0.9610201919372529
thorax -8.927333473659095 0.954773742801913 -0.40273418410872797
lowerneck -19.62095585074995 -5.377867586524461 -1.8283857951400269
upperneck 14.652243663940512 -7.7766930174747575 4.684059752667651
head 7.913938011788655 -3.3292630090194173 0.8847562507191775
lclavicle 1.195686686123455e-16 1.673755417415536e-15
lhumerus -53.20199208006405 -7.642118248289506 92.26270485604772
lradius 94.4813555861826
lwrist 33.90611523821493
lhand -27.895582806614698 10.915161297630284
lfingers 7.125019999999998
lthumb -1.2184199841782872 39.807520695294855
rclavicle 1.2409164009688544e-16 1.6777576999918654e-15
rhumerus -43.770361327847624 12.525789272482585 -96.72433148435428
rradius 120.4464386753173
rwrist -17.959194175875343
rhand -18.631052094813473 40.3841645066245
rfingers 7.125019999999998
rthumb 7.631214621179361 11.215652088226213
68
root -0.7342092354922363 17.20322249162558 36.25193350013399 2.4760541466281905 5.364214276953778 1.2696408871242428
lfemur -21.237491287065577 -5.742559622395446 -25.402939383324558
ltibia 46.81086521649933
lfoot -4.661772811246127 -9.373640522852153
ltoes 4.915139711006201
rfemur -15.598043049812082 -7.076613258284275 21.53857042293339
rtibia 80.85993092126088
rfoot 13.184241029617205 -4.80446658814979
rtoes 13.76659780813511
lowerback 14.478807406893335 1.5486012168102268 -0.604401575194561
upperback 0.16700199859932363 2.0008054863813176 -0.9122043386072703
thorax -9.095368448317414 1.0295791556080656 -0.09154832178226599
lowerneck -20.058181991449555 -5.249886011655368 -1.7390232545914952
upperneck 14.618013182995062 -7.602784172104043 4.692401722243219
head 7.925488027003086 -3.2429386973240373 0.8880470948886423
lclavicle 1.2009155192367164e-16 1.6741104287202939e-15
lhumerus -50.84190403677661 -7.944771283529022 92.12762379721653
lradius 95.13869144656526
lwrist 33.66729656402962
lhand -27.409879592638962 11.647059401760966
lfingers 7.125019999999998
lthumb -0.9231613339116076 40.29118265208118
rclavicle 1.2394459234024096e-16 1.6776288079046257e-15
rhumerus -44.812250131947934 11.877692133850783 -96.90280805520739
rradius 118.97419551591595
rwrist -18.07367306971646
rhand -18.481260672095598 40.44603782588273
rfingers 7.125019999999998
rthumb 7.804356181496601 11.532852747744831
69
root -0.7543012947034345 17.119681828333164 37.12872485934253 3.0394931707253785 4.335092972696909 1.2000920476532924
lfemur -20.23905334725453 -4.5027466923819075 -25.391023164397584
ltibia 48.40256052390063
lfoot -5.394100513148328 -7.672723028974
ltoes 2.089804309930811
rfemur -20.09299374087641 -5.864295972614378 21.553714442144358
rtibia 85.63917080817092
rfoot 11.774695020145316 -4.82802975416724
rtoes 12.523242138296773
lowerback 14.41929524467314 1.628369192019036 -0.5185049766197128
upperback 0.06708308727179468 2.0805312798375852 -0.7233579120993848
thorax -9.165047209454558 1.0624542711721268 0.13894533514643229
lowerneck -20.496100036754363 -5.007851833404021 -1.6762209505572787
upperneck 14.594315336897935 -7.2591630037230495 4.649042236856548
head 7.931814708888065 -3.0899821917072057 0.8970547858612887
lclavicle 1.2094667905823836e-16 1.6746910564776002e-15
lhumerus -48.77414728876089 -8.180231827494131 91.89630515138683
lradius 96.82311096258928
lwrist 33.476800820279514
lhand -26.883682537152772 11.12463040393592
lfingers 7.125019999999998
lthumb -0.6082144571389765 39.59876244299076
rclavicle 1.2412061828749977e-16 1.6777415847605417e-15
rhumerus -45.98725148015774 11.306070307019265 -97.02717649483064
rradius 117.88801008771419
rwrist -18.35194751705116
rhand -18.337356359767185 40.45364367623732
rfingers 7.125019999999998
rthumb 7.891326297930703 11.779028177331295
70
root -0.7550891026808226 17.08857002598299 37.80852938940754 3.7120345848073275 4.0165805148859395 1.7171055809004283
lfemur -18.94553729442618 -3.58770286082854 -26.05552925292684
ltibia 48.670348622451584
lfoot -5.160458328198554 -7.285212370587179
ltoes -2.5563563079856753
rfemur -24.492597471112678 -5.792832703306728 21.115767944837536
rtibia 88.53639731485342
rfoot 10.853542131210348 -5.292975072900889
rtoes 10.582168597702111
lowerback 14.162019512205582 1.398884172089297 -0.7545813846807786
upperback 0.005909143787358573 1.7627928372592798 -0.7575143803120336
thorax -9.217624477286016 0.9148211928456569 0.3569507479502602
lowerneck -20.760157693649937 -4.636680949518992 -1.6820102253933897
upperneck 14.583738551519977 -6.699361089897719 4.551225662861236
head 7.9238812939426015 -2.8433750869894765 0.9196919097708482
lclavicle 1.2100870259846454e-16 1.6747332721862396e-15
lhumerus -47.048623290578554 -8.341251531595692 91.60895991931329
lradius 99.4609080463554
lwrist 33.538295840384315
lhand -26.585317773850228 9.688817487842725
lfingers 7.125019999999998
lthumb -0.430825323091937 38.28711121056727
rclavicle 1.2487099849412285e-16 1.6782222051974336e-15
rhumerus -47.23704479565382 10.831978617806994 -97.08713299591909
rradius 117.15637684346004
rwrist -18.785758467574844
rhand -18.19034532759315 40.4220619460467
rfingers 7.125019999999998
rthumb 7.999590465757042 12.019623088370581
71
root -0.7475572122290154 17.131541741403083 38.85354106092852 4.129885108444273 3.677668869164596 1.5880070048915784
lfemur -17.5129873122401 -2.5019495784961343 -25.952185816637783
ltibia 48.23106976313681
lfoot -3.723793119466337 -7.678756647427361
ltoes -8.748520119503693
rfemur -28.606944439784357 -5.5289777822748105 21.613051850542718
rtibia 89.87635141442733
rfoot 10.238516486383018 -6.024736109655791
rtoes 8.370298210996483
lowerback 14.291933405985432 1.0712892212733849 -0.6006468687368188
upperback -0.09867375671640083 1.3478665910775314 -0.6547502842529779
thorax -9.285214954964815 0.7466776058800707 0.7267328005165234
lowerneck -20.937684130624085 -4.232703863929844 -1.68518940221892
upperneck 14.622942755991598 -6.075121720210372 4.327691765073139
head 7.920185526482858 -2.5704505000254074 0.9116534388298843
lclavicle 1.2052909913006076e-16 1.6744077761254928e-15
lhumerus -45.779366037132874 -8.441570913290448 91.24860454017843
lradius 102.90960552917186
lwrist 33.94240424480835
lhand -26.608624439882462 8.231634461494679
lfingers 7.125019999999998
lthumb -0.48083036579849825 37.11135584697058
rclavicle 1.2439121137114065e-16 1.6778332774187147e-15
rhumerus -48.55377414524405 10.452896602343534 -97.08133020239205
rradius 116.70989177901852
rwrist -19.311993359717775
rhand -18.041249447197938 40.352047696095326
rfingers 7.125019999999998
rthumb 8.064783368888966 12.165752970077456
72
root -0.7160486438400088 17.273241829909583 40.04914208324587 4.207288772356324 4.678488796156037 1.4071125262058362
lfemur -15.477134509588943 -3.2262775842657696 -25.820570462714183
ltibia 47.411516592298064
lfoot -1.2135447760257394 -8.66036271757083
ltoes -14.996781896431928
rfemur -31.66511794798181 -7.070647457818555 22.218125741627308
rtibia 89.59617735627968
rfoot 9.797834724478374 -6.847645679408638
rtoes 6.700794717293798
lowerback 14.530612057312588 0.2593023662433289 -0.17291471987003615
upperback -0.2518125213637434 0.1986657750192875 -0.43775814998748863
thorax -9.30329922136673 0.2176236777957431 1.2787565727361567
lowerneck -21.07903089857166 -3.8564505892453633 -1.7155667216312422
upperneck 14.711030014625827 -5.476862783865596 4.052379201206951
head 7.932129974164346 -2.3080964178862002 0.8830572397553034
lclavicle 1.1984711985697391e-16 1.673944825907748e-15
lhumerus -44.84740183701392 -8.468055892909879 90.8653258676178
lradius 106.76124513692149
lwrist 34.49572656192958
lhand -26.82860911480239 7.476374119747694
lfingers 7.125019999999998
lthumb -0.6199920455008148 36.51677054405043
rclavicle 1.2365386174499949e-16 1.6772452837850949e-15
rhumerus -49.87383896158378 10.201519105442943 -96.99122849049598
rradius 116.44113872479443
rwrist -19.877899039350943
rhand -17.87982603237644 40.248017970928025
rfingers 7.125019999999998
rthumb 8.113653523822965 12.28673858273596
73
root -0.7396136588528693 17.42212250890296 40.7718960171476 4.450636941789634 2.5335282653279183 0.9883477619834963
lfemur -13.726066949137872 -0.9790790386338384 -25.335573283400322
ltibia 46.28863991327665
lfoot 2.4530704136014343 -10.123410870252894
ltoes -18.7258054527635
rfemur -34.49808068308655 -3.866124326448073 23.182767668114487
rtibia 87.98414311761839
rfoot 9.368520230600257 -7.660160075025549
rtoes 5.440597856986629
lowerback 14.056520360784788 0.4936377286548765 -0.8423095949257752
upperback -0.7117005017028796 0.40967567820967754 0.030735425389217252
thorax -9.537508386902102 0.32792507935157283 1.845483533086677
lowerneck -20.917022619025424 -3.516720554843637 -1.72644621335352
upperneck 14.743458797178542 -4.92612510611508 3.718546004560097
head 7.921872525210639 -2.0721084808631853 0.8314591621045665
lclavicle 1.1906630630629346e-16 1.673414796099356e-15
lhumerus -44.365581301972725 -8.549629648597481 90.45069801232538
lradius 110.70004099409951
lwrist 34.97986477929269
lhand -27.04558348580822 7.353733272044274
lfingers 7.125019999999998
lthumb -0.6415667456054437 36.4273905454953
rclavicle 1.2385775220739834e-16 1.6774455818794231e-15
rhumerus -51.030916171206485 10.149737348637277 -96.79818217240853
rradius 116.22909869379801
rwrist -20.44647117314886
rhand -17.704303245516698 40.119994200087895
rfingers 7.125019999999998
rthumb 8.083223093591249 12.274778575574858
